<svg width="253" height="206" viewBox="0 0 253 206" fill="none" xmlns="http://www.w3.org/2000/svg">
<path d="M199.237 160.122C199.182 160.029 199.094 159.964 198.99 159.937C198.886 159.91 198.777 159.925 198.684 159.98L197.346 160.772L196.554 159.433C196.499 159.34 196.412 159.275 196.307 159.248C196.203 159.221 196.094 159.236 196.002 159.292C195.909 159.347 195.844 159.435 195.817 159.539C195.79 159.643 195.805 159.752 195.861 159.844L196.652 161.183L195.313 161.975C195.221 162.03 195.155 162.117 195.128 162.221C195.101 162.326 195.116 162.435 195.172 162.527C195.227 162.62 195.315 162.685 195.419 162.712C195.523 162.739 195.632 162.724 195.725 162.668L197.063 161.877L197.855 163.216C197.944 163.367 198.117 163.438 198.28 163.406C198.323 163.397 198.365 163.381 198.406 163.357C198.597 163.245 198.661 162.996 198.548 162.804L197.757 161.466L199.096 160.674C199.286 160.56 199.35 160.313 199.237 160.122Z" fill="#FD523E"/>
<path d="M202.63 168.98C201.661 168.98 200.873 168.192 200.873 167.222C200.873 166.253 201.661 165.465 202.63 165.465C203.599 165.465 204.387 166.253 204.387 167.222C204.387 168.192 203.599 168.98 202.63 168.98ZM202.63 166.406C202.18 166.406 201.812 166.772 201.812 167.224C201.812 167.676 202.178 168.042 202.63 168.042C203.08 168.042 203.448 167.676 203.448 167.224C203.448 166.772 203.082 166.406 202.63 166.406Z" fill="#FD523E"/>
<path d="M25.1947 194.763C24.2254 194.763 23.4375 193.975 23.4375 193.005C23.4375 192.036 24.2254 191.248 25.1947 191.248C26.1639 191.248 26.9518 192.036 26.9518 193.005C26.9518 193.975 26.1623 194.763 25.1947 194.763ZM25.1947 192.187C24.7444 192.187 24.3766 192.554 24.3766 193.005C24.3766 193.456 24.7428 193.824 25.1947 193.824C25.6449 193.824 26.0128 193.457 26.0128 193.005C26.0128 192.555 25.6449 192.187 25.1947 192.187Z" fill="#FD523E"/>
<path d="M219.732 5.85318C218.762 5.85318 217.975 5.06531 217.975 4.09602C217.975 3.12673 218.762 2.33887 219.732 2.33887C220.701 2.33887 221.489 3.12673 221.489 4.09602C221.489 5.06531 220.701 5.85318 219.732 5.85318ZM219.732 3.2796C219.282 3.2796 218.914 3.64581 218.914 4.0977C218.914 4.54791 219.28 4.9158 219.732 4.9158C220.182 4.9158 220.55 4.54959 220.55 4.0977C220.55 3.64581 220.184 3.2796 219.732 3.2796Z" fill="#FD523E"/>
<path d="M249.803 50.3448C249.706 50.3918 249.633 50.4741 249.598 50.5766C249.563 50.6791 249.569 50.7883 249.616 50.884L250.297 52.2817L248.899 52.962C248.802 53.0091 248.73 53.0914 248.694 53.1939C248.659 53.2963 248.666 53.4055 248.713 53.5013C248.76 53.5987 248.842 53.6709 248.945 53.7062C249.047 53.7415 249.156 53.7348 249.252 53.6877L250.65 53.0074L251.33 54.405C251.377 54.5025 251.459 54.5747 251.562 54.61C251.664 54.6453 251.773 54.6386 251.869 54.5915C251.967 54.5445 252.039 54.4622 252.074 54.3597C252.109 54.2572 252.103 54.148 252.056 54.0523L251.375 52.6546L252.773 51.9743C252.931 51.897 253.017 51.7307 252.996 51.566C252.991 51.5224 252.98 51.4787 252.958 51.4367C252.86 51.2368 252.618 51.1528 252.419 51.2502L251.021 51.9306L250.34 50.5329C250.245 50.3313 250.003 50.2473 249.803 50.3448Z" fill="#FD523E"/>
<path d="M224.421 83.778C223.452 83.778 222.664 82.9901 222.664 82.0208C222.664 81.0515 223.452 80.2637 224.421 80.2637C225.391 80.2637 226.178 81.0515 226.178 82.0208C226.178 82.9901 225.391 83.778 224.421 83.778ZM224.421 81.2027C223.971 81.2027 223.603 81.5689 223.603 82.0208C223.603 82.4727 223.969 82.8389 224.421 82.8389C224.873 82.8389 225.239 82.4727 225.239 82.0208C225.239 81.5689 224.873 81.2027 224.421 81.2027Z" fill="#FD523E"/>
<path d="M0.40636 108.269C0.327405 108.343 0.282049 108.442 0.278689 108.549C0.275329 108.657 0.313966 108.759 0.387881 108.838L1.45125 109.972L0.317326 111.036C0.238372 111.11 0.193015 111.209 0.189655 111.316C0.186295 111.424 0.224933 111.526 0.298847 111.605C0.372762 111.684 0.471875 111.729 0.579387 111.733C0.6869 111.736 0.789372 111.697 0.868327 111.624L2.00225 110.56L3.06561 111.694C3.13952 111.773 3.23864 111.818 3.34615 111.822C3.45366 111.825 3.55614 111.787 3.63509 111.713C3.71404 111.639 3.7594 111.54 3.76276 111.432C3.76612 111.325 3.72748 111.222 3.65357 111.143L2.5902 110.009L3.72412 108.946C3.85179 108.827 3.88371 108.642 3.81652 108.489C3.79804 108.449 3.77452 108.41 3.74092 108.376C3.58805 108.213 3.33271 108.207 3.17144 108.358L2.03752 109.421L0.974159 108.287C0.82465 108.124 0.569308 108.116 0.40636 108.269Z" fill="#FD523E"/>
<path d="M17.7181 127.584C16.7488 127.584 15.9609 126.796 15.9609 125.827C15.9609 124.857 16.7488 124.07 17.7181 124.07C18.6874 124.07 19.4752 124.857 19.4752 125.827C19.4736 126.796 18.6857 127.584 17.7181 127.584ZM17.7181 125.009C17.2679 125.009 16.9 125.375 16.9 125.827C16.9 126.279 17.2662 126.645 17.7181 126.645C18.1683 126.645 18.5362 126.279 18.5362 125.827C18.5362 125.375 18.1683 125.009 17.7181 125.009Z" fill="#FD523E"/>
<path d="M47.9633 182.802C47.7752 182.802 47.6173 182.654 47.6072 182.464C47.5954 182.267 47.7466 182.098 47.9449 182.088C49.1241 182.022 50.3169 181.903 51.4911 181.738C51.686 181.711 51.8674 181.847 51.8943 182.042C51.9211 182.237 51.7851 182.419 51.5902 182.446C50.3958 182.613 49.1829 182.734 47.9835 182.802C47.9768 182.802 47.9701 182.802 47.9633 182.802ZM42.9355 182.787C42.9287 182.787 42.9203 182.787 42.9119 182.787C41.7108 182.711 40.4979 182.583 39.3086 182.407C39.1137 182.378 38.9793 182.195 39.0079 182C39.0365 181.805 39.2196 181.671 39.4144 181.7C40.5836 181.874 41.7763 181.999 42.9573 182.073C43.1538 182.084 43.3033 182.254 43.2916 182.452C43.2798 182.642 43.1219 182.787 42.9355 182.787ZM56.4703 181.458C56.3123 181.458 56.1662 181.352 56.1242 181.191C56.0738 180.999 56.188 180.804 56.3795 180.754C57.5252 180.453 58.6709 180.1 59.7847 179.706C59.9711 179.64 60.1744 179.738 60.2416 179.922C60.3071 180.109 60.2097 180.312 60.0249 180.379C58.8926 180.781 57.7285 181.14 56.5626 181.446C56.5307 181.454 56.5005 181.458 56.4703 181.458ZM34.4386 181.375C34.4067 181.375 34.3765 181.372 34.3445 181.362C33.1837 181.044 32.023 180.675 30.8924 180.26C30.7076 180.193 30.6119 179.986 30.679 179.801C30.7462 179.617 30.9529 179.521 31.1377 179.588C32.2497 179.995 33.3904 180.359 34.5327 180.672C34.7225 180.724 34.8351 180.92 34.783 181.11C34.7393 181.271 34.5965 181.375 34.4386 181.375ZM64.5354 178.442C64.4043 178.442 64.2767 178.37 64.2145 178.244C64.1271 178.068 64.1994 177.853 64.3758 177.765C65.4358 177.24 66.4857 176.663 67.4987 176.05C67.6683 175.948 67.8867 176.001 67.9892 176.171C68.0917 176.341 68.0379 176.559 67.8682 176.662C66.8402 177.285 65.7718 177.871 64.6933 178.405C64.6429 178.429 64.5891 178.442 64.5354 178.442ZM26.4021 178.276C26.3483 178.276 26.2929 178.264 26.2408 178.237C25.169 177.693 24.1057 177.097 23.0809 176.465C22.913 176.361 22.8609 176.141 22.965 175.973C23.0692 175.805 23.2893 175.753 23.4572 175.857C24.4652 176.479 25.5101 177.067 26.565 177.601C26.7414 177.69 26.812 177.905 26.7229 178.081C26.6591 178.205 26.5331 178.276 26.4021 178.276ZM71.8193 173.856C71.7135 173.856 71.6077 173.809 71.5371 173.719C71.4162 173.562 71.443 173.339 71.5993 173.216C72.5316 172.487 73.4438 171.709 74.3106 170.905C74.4551 170.77 74.6818 170.779 74.8162 170.923C74.9506 171.068 74.9422 171.294 74.7977 171.429C73.9158 172.247 72.9885 173.038 72.0411 173.779C71.9739 173.833 71.8966 173.856 71.8193 173.856ZM19.1534 173.629C19.0761 173.629 18.9972 173.604 18.9316 173.552C17.9892 172.805 17.067 172.007 16.1901 171.182C16.0456 171.046 16.0389 170.821 16.175 170.676C16.311 170.532 16.5361 170.525 16.6806 170.661C17.5424 171.471 18.4495 172.255 19.3768 172.991C19.5314 173.114 19.5566 173.339 19.4339 173.493C19.3617 173.582 19.2575 173.629 19.1534 173.629ZM78.0298 167.894C77.9475 167.894 77.8652 167.866 77.798 167.809C77.6468 167.681 77.63 167.456 77.7577 167.305C78.5237 166.403 79.2612 165.459 79.9499 164.496C80.0642 164.335 80.2876 164.298 80.4489 164.414C80.6101 164.528 80.6471 164.751 80.5312 164.913C79.8307 165.892 79.0814 166.853 78.302 167.768C78.2331 167.852 78.1323 167.894 78.0298 167.894ZM12.9832 167.626C12.8807 167.626 12.7799 167.582 12.7094 167.498C11.9349 166.576 11.1924 165.61 10.5003 164.625C10.3861 164.464 10.4247 164.241 10.5877 164.126C10.7489 164.012 10.9724 164.051 11.0866 164.214C11.767 165.181 12.4977 166.131 13.2587 167.038C13.3864 167.189 13.3662 167.414 13.215 167.542C13.1445 167.597 13.0638 167.626 12.9832 167.626ZM82.9217 160.807C82.8629 160.807 82.8041 160.792 82.7503 160.763C82.5773 160.668 82.5151 160.451 82.6092 160.278C83.1804 159.241 83.7129 158.168 84.195 157.086C84.2756 156.906 84.4873 156.824 84.667 156.905C84.8468 156.985 84.9291 157.197 84.8485 157.377C84.3596 158.475 83.817 159.567 83.2358 160.622C83.1703 160.74 83.0476 160.807 82.9217 160.807ZM8.14849 160.5C8.02082 160.5 7.89819 160.431 7.83267 160.311C7.26151 159.253 6.73067 158.156 6.25191 157.051C6.17295 156.869 6.25695 156.659 6.43837 156.58C6.6198 156.501 6.82978 156.585 6.90874 156.767C7.37911 157.852 7.90155 158.931 8.46263 159.972C8.5567 160.147 8.49119 160.363 8.31816 160.456C8.2644 160.486 8.20561 160.5 8.14849 160.5ZM86.2932 152.881C86.2579 152.881 86.2226 152.876 86.1873 152.864C85.9992 152.806 85.8934 152.606 85.9522 152.418C86.3033 151.287 86.609 150.128 86.8626 148.972C86.9046 148.779 87.0962 148.658 87.2877 148.7C87.4809 148.742 87.6018 148.934 87.5598 149.125C87.3028 150.299 86.9903 151.479 86.6342 152.628C86.5872 152.782 86.446 152.881 86.2932 152.881ZM4.85761 152.542C4.70306 152.542 4.56195 152.441 4.51491 152.287C4.17053 151.138 3.87152 149.957 3.62289 148.776C3.58258 148.582 3.70689 148.393 3.90007 148.352C4.09326 148.312 4.28309 148.436 4.3234 148.63C4.56699 149.79 4.86264 150.953 5.2003 152.082C5.25742 152.272 5.1499 152.47 4.96008 152.527C4.92648 152.537 4.8912 152.542 4.85761 152.542ZM87.9966 144.437C87.9848 144.437 87.973 144.437 87.9613 144.435C87.7647 144.416 87.6203 144.242 87.6404 144.045C87.7547 142.868 87.8202 141.671 87.8336 140.487C87.8353 140.291 87.9982 140.129 88.1948 140.134C88.393 140.136 88.5509 140.299 88.5476 140.496C88.5341 141.7 88.4669 142.916 88.351 144.114C88.3342 144.299 88.178 144.437 87.9966 144.437ZM3.22812 144.085C3.04501 144.085 2.88879 143.946 2.87199 143.76C2.76279 142.56 2.704 141.342 2.69728 140.139C2.6956 139.943 2.85519 139.782 3.05341 139.78H3.05509C3.25164 139.78 3.41123 139.938 3.41291 140.136C3.41963 141.319 3.47674 142.515 3.58426 143.696C3.60273 143.892 3.45658 144.065 3.26004 144.084C3.24996 144.085 3.2382 144.085 3.22812 144.085ZM87.9512 135.825C87.7715 135.825 87.6152 135.689 87.5968 135.506C87.4708 134.332 87.2944 133.146 87.071 131.982L87.0626 131.937C87.0256 131.743 87.1516 131.555 87.3448 131.518C87.5396 131.481 87.7261 131.607 87.7631 131.8L87.7715 131.848C87.9999 133.034 88.1797 134.238 88.3074 135.432C88.3292 135.629 88.1864 135.805 87.9899 135.825C87.9781 135.824 87.9646 135.825 87.9512 135.825ZM3.32723 135.471C3.31379 135.471 3.30036 135.471 3.28692 135.469C3.09037 135.447 2.94926 135.269 2.97278 135.075C3.10885 133.878 3.29868 132.674 3.53554 131.495C3.57418 131.302 3.76232 131.176 3.95719 131.214C4.15038 131.253 4.27637 131.441 4.23773 131.636C4.00423 132.797 3.81776 133.981 3.68505 135.155C3.65985 135.337 3.5053 135.471 3.32723 135.471ZM86.1722 127.352C86.021 127.352 85.8799 127.255 85.8312 127.104C85.4717 125.975 85.0618 124.849 84.6099 123.757C84.5343 123.574 84.6217 123.366 84.8031 123.29C84.9862 123.215 85.1945 123.302 85.2701 123.483C85.7304 124.594 86.1487 125.738 86.5132 126.887C86.5737 127.075 86.4696 127.277 86.2814 127.335C86.2445 127.347 86.2092 127.352 86.1722 127.352ZM5.1667 127.056C5.12975 127.056 5.09279 127.051 5.05583 127.038C4.86768 126.976 4.76689 126.774 4.82737 126.586C5.20198 125.444 5.63203 124.301 6.1024 123.194C6.17967 123.013 6.38966 122.927 6.57108 123.005C6.75251 123.082 6.83818 123.292 6.76091 123.473C6.29726 124.564 5.87561 125.686 5.50772 126.808C5.45732 126.962 5.31789 127.056 5.1667 127.056ZM82.7436 119.453C82.6193 119.453 82.4966 119.388 82.4311 119.27C81.8516 118.239 81.2216 117.219 80.5564 116.241C80.4455 116.078 80.4875 115.855 80.6505 115.744C80.8134 115.633 81.0368 115.675 81.1477 115.838C81.823 116.834 82.4647 117.871 83.0544 118.919C83.1518 119.091 83.0896 119.309 82.9183 119.406C82.8645 119.438 82.8041 119.453 82.7436 119.453ZM8.66757 119.188C8.6071 119.188 8.54662 119.173 8.49119 119.141C8.31984 119.043 8.26104 118.825 8.35848 118.654C8.95483 117.609 9.60495 116.577 10.287 115.586C10.3995 115.423 10.6213 115.383 10.7842 115.496C10.9472 115.608 10.9875 115.83 10.8749 115.993C10.203 116.967 9.56463 117.982 8.97835 119.01C8.91116 119.124 8.79189 119.188 8.66757 119.188ZM77.7879 112.416C77.6888 112.416 77.588 112.374 77.5175 112.294C76.7414 111.402 75.9182 110.53 75.0699 109.705C74.9288 109.567 74.9254 109.34 75.0632 109.199C75.2009 109.058 75.4277 109.055 75.5688 109.193C76.4323 110.031 77.2689 110.918 78.0584 111.825C78.1877 111.975 78.1726 112.2 78.0231 112.329C77.9559 112.386 77.8719 112.416 77.7879 112.416ZM13.6719 112.181C13.5879 112.181 13.5039 112.153 13.4368 112.092C13.2889 111.961 13.2738 111.736 13.4048 111.588C14.1994 110.684 15.0427 109.802 15.9095 108.969C16.0523 108.831 16.2774 108.837 16.4152 108.979C16.5513 109.122 16.5479 109.347 16.4051 109.485C15.5517 110.305 14.7235 111.172 13.9424 112.06C13.8702 112.139 13.7711 112.181 13.6719 112.181ZM71.5136 106.518C71.438 106.518 71.3607 106.495 71.2969 106.444C70.3578 105.725 69.3751 105.037 68.3789 104.398C68.2126 104.292 68.1639 104.071 68.2714 103.904C68.3773 103.738 68.599 103.689 68.7653 103.797C69.7783 104.445 70.7761 105.146 71.732 105.877C71.8882 105.996 71.9184 106.221 71.7992 106.377C71.7286 106.47 71.6211 106.518 71.5136 106.518ZM19.9799 106.322C19.8724 106.322 19.7649 106.273 19.6943 106.181C19.575 106.023 19.607 105.799 19.7632 105.68C20.7241 104.954 21.7253 104.261 22.7433 103.62C22.9096 103.515 23.1313 103.565 23.2372 103.733C23.343 103.899 23.2926 104.121 23.1246 104.227C22.1234 104.857 21.1373 105.539 20.1949 106.253C20.1294 106.298 20.0538 106.322 19.9799 106.322ZM64.1843 101.996C64.1322 101.996 64.0784 101.984 64.028 101.961C62.963 101.443 61.8643 100.966 60.7607 100.541C60.5759 100.471 60.4852 100.264 60.5557 100.079C60.6263 99.8945 60.8329 99.8038 61.0177 99.8744C62.1398 100.306 63.2586 100.793 64.3405 101.319C64.5186 101.405 64.5925 101.62 64.5051 101.796C64.4446 101.922 64.317 101.996 64.1843 101.996ZM27.3411 101.855C27.2067 101.855 27.0791 101.779 27.0186 101.65C26.9346 101.472 27.0102 101.259 27.1883 101.173C28.2751 100.657 29.3973 100.182 30.5245 99.7601C30.7093 99.6912 30.9159 99.7853 30.9848 99.9701C31.0537 100.155 30.9596 100.362 30.7748 100.43C29.6661 100.845 28.5624 101.312 27.494 101.82C27.4453 101.843 27.3915 101.855 27.3411 101.855ZM56.0973 99.0378C56.0688 99.0378 56.0385 99.0344 56.0083 99.026C54.8609 98.7337 53.6884 98.4885 52.5209 98.2953C52.326 98.2634 52.195 98.0786 52.2269 97.8837C52.2588 97.6888 52.4436 97.5578 52.6385 97.5897C53.8244 97.7863 55.0188 98.0366 56.1847 98.3339C56.3762 98.3826 56.4921 98.5775 56.4434 98.769C56.4014 98.9286 56.2569 99.0378 56.0973 99.0378ZM35.4533 98.9706C35.292 98.9706 35.1459 98.8614 35.1055 98.6984C35.0585 98.5069 35.1761 98.3138 35.3676 98.2667C36.0782 98.092 36.8039 97.9341 37.5262 97.7947C37.9865 97.7056 38.4552 97.6233 38.9189 97.5511C39.1137 97.5208 39.2968 97.6535 39.3288 97.8484C39.359 98.0433 39.2263 98.2264 39.0314 98.2583C38.5762 98.3305 38.1142 98.4112 37.6606 98.4985C36.95 98.6346 36.2361 98.7908 35.5373 98.9622C35.5104 98.9672 35.4818 98.9706 35.4533 98.9706ZM47.5753 97.7745C47.5702 97.7745 47.5652 97.7745 47.5585 97.7745C46.9319 97.7459 46.2969 97.7325 45.6703 97.7325C45.1143 97.7325 44.5515 97.7443 43.9955 97.7661C43.8006 97.7745 43.6326 97.62 43.6242 97.4234C43.6158 97.2269 43.7704 97.0606 43.9669 97.0522C44.533 97.0303 45.1059 97.0186 45.6703 97.0186C46.307 97.0186 46.9537 97.0337 47.5904 97.0622C47.7869 97.0706 47.9398 97.2386 47.9314 97.4352C47.923 97.6233 47.7651 97.7745 47.5753 97.7745Z" fill="#F15A29"/>
<path d="M176.474 150.326C176.267 150.34 176.062 150.351 175.857 150.363C175.661 150.375 175.491 150.224 175.481 150.027C175.469 149.831 175.619 149.663 175.815 149.651C175.817 149.651 175.817 149.651 175.819 149.651C176.988 149.585 178.17 149.49 179.338 149.369C179.535 149.347 179.711 149.491 179.731 149.688C179.751 149.884 179.608 150.061 179.412 150.081C178.436 150.18 177.448 150.262 176.474 150.326ZM170.898 150.479C170.89 150.479 170.88 150.481 170.871 150.479C169.689 150.467 168.491 150.427 167.31 150.358C167.113 150.346 166.962 150.178 166.974 149.98C166.986 149.784 167.155 149.632 167.352 149.644C168.521 149.711 169.707 149.752 170.878 149.764C171.075 149.765 171.234 149.926 171.233 150.125C171.229 150.314 171.083 150.467 170.898 150.479ZM184.312 149.406C184.132 149.417 183.968 149.291 183.937 149.108C183.904 148.913 184.035 148.729 184.23 148.695C185.387 148.499 186.551 148.27 187.694 148.02C187.887 147.978 188.077 148.099 188.12 148.292C188.162 148.485 188.041 148.675 187.848 148.717C186.696 148.971 185.52 149.199 184.352 149.399C184.337 149.404 184.326 149.404 184.312 149.406ZM162.411 149.906C162.39 149.908 162.366 149.906 162.344 149.905C161.17 149.757 159.984 149.58 158.822 149.377C158.627 149.344 158.497 149.159 158.531 148.964C158.565 148.769 158.751 148.64 158.944 148.673C160.097 148.875 161.271 149.05 162.433 149.196C162.63 149.221 162.768 149.399 162.744 149.596C162.721 149.767 162.579 149.896 162.411 149.906ZM192.602 147.502C192.439 147.512 192.283 147.41 192.236 147.245C192.181 147.056 192.29 146.857 192.48 146.802C193.605 146.476 194.736 146.116 195.844 145.737C196.031 145.673 196.234 145.772 196.298 145.959C196.362 146.145 196.263 146.348 196.076 146.412C194.958 146.795 193.815 147.158 192.68 147.487C192.653 147.497 192.628 147.501 192.602 147.502ZM154.039 148.362C154.004 148.364 153.967 148.362 153.931 148.352C152.782 148.072 151.623 147.758 150.486 147.422C150.296 147.366 150.189 147.166 150.244 146.978C150.3 146.788 150.499 146.681 150.688 146.736C151.813 147.069 152.962 147.38 154.101 147.659C154.293 147.706 154.41 147.899 154.363 148.09C154.326 148.247 154.192 148.352 154.039 148.362ZM200.62 144.667C200.473 144.677 200.328 144.593 200.268 144.448C200.19 144.267 200.276 144.057 200.459 143.98C201.539 143.526 202.623 143.041 203.679 142.537C203.858 142.451 204.071 142.527 204.157 142.705C204.242 142.883 204.167 143.096 203.989 143.182C202.922 143.691 201.828 144.181 200.738 144.64C200.698 144.655 200.659 144.665 200.62 144.667ZM145.897 145.866C145.848 145.87 145.797 145.863 145.749 145.844C144.64 145.433 143.525 144.989 142.434 144.526C142.253 144.448 142.169 144.238 142.246 144.057C142.323 143.876 142.533 143.79 142.715 143.869C143.795 144.329 144.899 144.768 145.997 145.176C146.182 145.245 146.276 145.45 146.209 145.636C146.159 145.77 146.033 145.858 145.897 145.866ZM208.255 140.932C208.123 140.941 207.99 140.875 207.921 140.751C207.824 140.58 207.886 140.361 208.057 140.264C209.075 139.691 210.093 139.086 211.084 138.465C211.252 138.36 211.472 138.411 211.577 138.577C211.681 138.745 211.63 138.965 211.464 139.069C210.464 139.696 209.436 140.307 208.408 140.887C208.36 140.914 208.308 140.929 208.255 140.932ZM138.095 142.456C138.033 142.459 137.969 142.448 137.91 142.417C136.855 141.882 135.799 141.314 134.769 140.731C134.598 140.633 134.537 140.415 134.635 140.244C134.732 140.072 134.95 140.012 135.122 140.109C136.14 140.689 137.186 141.25 138.233 141.781C138.409 141.87 138.48 142.085 138.391 142.261C138.332 142.377 138.218 142.448 138.095 142.456ZM215.408 136.351C215.289 136.36 215.17 136.308 215.096 136.204C214.98 136.044 215.015 135.82 215.175 135.705C216.122 135.018 217.065 134.3 217.979 133.569C218.133 133.447 218.358 133.47 218.481 133.625C218.604 133.779 218.58 134.005 218.425 134.127C217.503 134.865 216.551 135.59 215.595 136.282C215.538 136.324 215.472 136.346 215.408 136.351ZM130.737 138.182C130.662 138.187 130.584 138.169 130.517 138.124C129.529 137.472 128.545 136.788 127.589 136.091C127.43 135.975 127.394 135.752 127.512 135.592C127.628 135.432 127.851 135.397 128.011 135.515C128.957 136.205 129.933 136.882 130.91 137.527C131.075 137.636 131.12 137.858 131.011 138.023C130.949 138.119 130.845 138.176 130.737 138.182ZM221.993 130.979C221.889 130.986 221.782 130.947 221.706 130.863C221.574 130.717 221.584 130.492 221.728 130.358C222.592 129.568 223.447 128.747 224.273 127.915C224.413 127.776 224.639 127.774 224.779 127.913C224.918 128.053 224.92 128.28 224.78 128.419C223.947 129.257 223.084 130.087 222.212 130.885C222.15 130.944 222.072 130.974 221.993 130.979ZM123.914 133.102C123.825 133.107 123.734 133.081 123.662 133.02C122.755 132.263 121.854 131.471 120.984 130.672C120.839 130.537 120.829 130.312 120.964 130.166C121.098 130.022 121.323 130.011 121.469 130.144C122.331 130.937 123.223 131.72 124.122 132.471C124.273 132.597 124.293 132.824 124.167 132.975C124.098 133.054 124.008 133.096 123.914 133.102ZM227.93 124.891C227.839 124.896 227.747 124.868 227.673 124.804C227.524 124.674 227.509 124.448 227.638 124.3C228.407 123.416 229.165 122.502 229.891 121.584C230.013 121.429 230.238 121.402 230.393 121.525C230.547 121.647 230.574 121.872 230.452 122.027C229.719 122.954 228.953 123.877 228.177 124.769C228.112 124.844 228.023 124.884 227.93 124.891ZM117.712 127.285C117.609 127.292 117.505 127.255 117.429 127.174C116.615 126.317 115.81 125.43 115.037 124.538C114.908 124.389 114.925 124.164 115.074 124.034C115.224 123.905 115.449 123.922 115.578 124.071C116.344 124.957 117.14 125.835 117.947 126.684C118.083 126.826 118.078 127.053 117.935 127.189C117.871 127.246 117.792 127.28 117.712 127.285ZM233.14 118.167C233.062 118.172 232.983 118.152 232.914 118.104C232.751 117.992 232.711 117.77 232.822 117.607C233.486 116.641 234.136 115.647 234.752 114.652C234.856 114.484 235.076 114.432 235.244 114.536C235.412 114.641 235.464 114.861 235.36 115.029C234.737 116.033 234.082 117.038 233.412 118.012C233.346 118.108 233.245 118.16 233.14 118.167ZM112.212 120.802C112.096 120.809 111.978 120.76 111.903 120.661C111.192 119.719 110.493 118.746 109.828 117.772C109.717 117.609 109.759 117.387 109.922 117.275C110.085 117.164 110.308 117.206 110.419 117.369C111.079 118.335 111.77 119.297 112.474 120.231C112.593 120.389 112.561 120.613 112.403 120.732C112.346 120.775 112.279 120.799 112.212 120.802ZM237.556 110.893C237.492 110.896 237.427 110.884 237.366 110.851C237.191 110.758 237.126 110.542 237.218 110.367C237.769 109.33 238.302 108.269 238.802 107.21C238.886 107.032 239.1 106.955 239.278 107.039C239.456 107.123 239.533 107.336 239.449 107.515C238.945 108.583 238.406 109.656 237.85 110.701C237.788 110.819 237.675 110.886 237.556 110.893ZM107.489 113.74C107.358 113.749 107.229 113.685 107.159 113.565C106.56 112.549 105.978 111.504 105.43 110.459C105.338 110.285 105.405 110.068 105.579 109.977C105.754 109.885 105.971 109.952 106.062 110.127C106.606 111.162 107.182 112.196 107.775 113.203C107.876 113.372 107.819 113.592 107.649 113.691C107.599 113.72 107.543 113.737 107.489 113.74ZM241.117 103.162C241.067 103.165 241.015 103.157 240.964 103.138C240.781 103.066 240.691 102.86 240.763 102.675C241.193 101.583 241.601 100.466 241.976 99.3553C242.04 99.1689 242.241 99.0681 242.429 99.1319C242.616 99.1957 242.717 99.399 242.653 99.5855C242.273 100.706 241.861 101.833 241.428 102.937C241.374 103.07 241.252 103.154 241.117 103.162ZM103.607 106.181C103.463 106.191 103.32 106.11 103.258 105.969C102.779 104.889 102.32 103.78 101.894 102.678C101.823 102.493 101.914 102.287 102.099 102.216C102.284 102.144 102.49 102.236 102.561 102.421C102.984 103.513 103.438 104.61 103.911 105.68C103.992 105.86 103.91 106.072 103.73 106.152C103.69 106.169 103.648 106.179 103.607 106.181ZM243.773 95.0716C243.736 95.0733 243.698 95.07 243.659 95.0599C243.467 95.0095 243.355 94.8129 243.405 94.6231C243.706 93.4875 243.985 92.3318 244.23 91.1844C244.272 90.9912 244.462 90.8686 244.655 90.9106C244.848 90.9526 244.971 91.1424 244.929 91.3356C244.68 92.493 244.4 93.6605 244.096 94.8079C244.054 94.9574 243.921 95.0616 243.773 95.0716ZM100.614 98.2197C100.452 98.2298 100.3 98.1307 100.249 97.9694C99.8981 96.8406 99.5688 95.6882 99.2715 94.5442C99.2211 94.3526 99.337 94.1578 99.5268 94.1074C99.7183 94.057 99.9132 94.1729 99.9636 94.3627C100.259 95.4966 100.585 96.6373 100.933 97.7561C100.992 97.9442 100.886 98.1441 100.698 98.2029C100.671 98.213 100.642 98.2181 100.614 98.2197ZM245.482 86.731C245.456 86.7327 245.431 86.731 245.406 86.7277C245.211 86.6991 245.075 86.5177 245.104 86.3228C245.272 85.1654 245.414 83.9861 245.527 82.8203C245.545 82.6237 245.722 82.4793 245.917 82.4994C246.113 82.5179 246.258 82.6926 246.238 82.8891C246.123 84.0667 245.979 85.2561 245.809 86.4253C245.787 86.595 245.646 86.721 245.482 86.731ZM98.5508 89.9682C98.3728 89.9799 98.2115 89.8573 98.1762 89.6775C97.9561 88.5184 97.7596 87.3358 97.5916 86.1632C97.5631 85.9684 97.6991 85.7869 97.8957 85.7584C98.0922 85.7315 98.272 85.8659 98.3005 86.0624C98.4652 87.2232 98.66 88.3958 98.8784 89.5448C98.9154 89.738 98.7877 89.9262 98.5945 89.9631C98.5811 89.9665 98.5659 89.9682 98.5508 89.9682ZM246.219 78.2577C246.207 78.2577 246.197 78.2594 246.185 78.2577C245.989 78.2527 245.833 78.0864 245.839 77.8898C245.875 76.7189 245.881 75.533 245.86 74.3621C245.856 74.1638 246.014 74.0026 246.211 73.9975C246.409 73.9942 246.572 74.1504 246.575 74.3486C246.597 75.5313 246.59 76.729 246.555 77.9117C246.548 78.0981 246.402 78.246 246.219 78.2577ZM97.4337 81.5352C97.2388 81.5486 97.0692 81.4008 97.0541 81.2059C97.0322 80.927 97.0137 80.6482 96.9953 80.371C96.9365 79.4672 96.8945 78.5517 96.8693 77.6479C96.8642 77.4514 97.0171 77.2867 97.217 77.28C97.4135 77.275 97.5782 77.4295 97.5849 77.6278C97.6101 78.5231 97.6521 79.4303 97.7109 80.324C97.7294 80.5995 97.7478 80.875 97.7697 81.1505C97.7848 81.347 97.637 81.5184 97.4404 81.5335C97.4354 81.5352 97.4337 81.5352 97.4337 81.5352ZM245.986 69.7558C245.792 69.7676 245.623 69.6231 245.606 69.4299C245.508 68.2658 245.381 67.0848 245.226 65.9207L245.211 65.8081C245.184 65.6133 245.322 65.4335 245.519 65.4066C245.715 65.3798 245.895 65.5175 245.92 65.7141L245.935 65.8283C246.09 67.0025 246.219 68.1936 246.318 69.3695C246.335 69.566 246.189 69.739 245.992 69.7558C245.991 69.7542 245.987 69.7558 245.986 69.7558ZM97.2724 73.0316C97.2607 73.0316 97.2472 73.0333 97.2355 73.0316C97.0389 73.0232 96.8844 72.8586 96.8911 72.6604C96.9365 71.4777 97.0104 70.2816 97.1128 69.104C97.1296 68.9075 97.3027 68.7614 97.4992 68.7781C97.6958 68.7949 97.8419 68.968 97.8251 69.1645C97.7243 70.3304 97.6504 71.5164 97.6067 72.6856C97.6 72.872 97.4539 73.0198 97.2724 73.0316ZM244.773 61.2187C244.596 61.2304 244.435 61.1095 244.4 60.9331C244.17 59.7841 243.908 58.6266 243.624 57.491C243.575 57.2995 243.693 57.1047 243.884 57.0576C244.076 57.0089 244.27 57.1265 244.317 57.318C244.605 58.4637 244.868 59.6329 245.102 60.7937C245.141 60.9869 245.016 61.175 244.821 61.2153C244.803 61.217 244.788 61.2187 244.773 61.2187ZM98.0855 64.565C98.0603 64.5667 98.0334 64.565 98.0082 64.5617C97.8134 64.5314 97.679 64.3483 97.7092 64.1534C97.8906 62.9826 98.1023 61.7999 98.3392 60.6374C98.3778 60.4443 98.5676 60.32 98.7608 60.3586C98.954 60.3972 99.0783 60.5871 99.0397 60.7802C98.8045 61.931 98.5945 63.1018 98.4164 64.2626C98.3879 64.4306 98.2484 64.5532 98.0855 64.565ZM242.626 52.9906C242.466 53.0007 242.313 52.9033 242.263 52.7437C241.903 51.6283 241.512 50.5078 241.099 49.4125C241.03 49.2277 241.122 49.0211 241.307 48.9522C241.492 48.8833 241.699 48.9757 241.767 49.1605C242.184 50.2675 242.579 51.3981 242.943 52.5236C243.004 52.7118 242.901 52.9134 242.713 52.9738C242.685 52.9822 242.654 52.9873 242.626 52.9906ZM99.8679 56.2328C99.8292 56.2345 99.7889 56.2311 99.7503 56.221C99.5604 56.169 99.4479 55.9724 99.5 55.7809C99.8141 54.6386 100.16 53.4896 100.528 52.364C100.59 52.1759 100.792 52.0734 100.978 52.1356C101.166 52.1977 101.269 52.3993 101.207 52.5858C100.842 53.7012 100.499 54.8402 100.189 55.9707C100.147 56.1203 100.016 56.2227 99.8679 56.2328ZM239.553 45.0599C239.409 45.07 239.268 44.991 239.206 44.8516C238.72 43.7849 238.203 42.7165 237.667 41.6766C237.576 41.5019 237.645 41.2852 237.821 41.1945C237.998 41.1038 238.213 41.1727 238.303 41.3491C238.844 42.4007 239.367 43.4791 239.857 44.556C239.94 44.7357 239.859 44.9474 239.681 45.0297C239.637 45.0465 239.595 45.0566 239.553 45.0599ZM102.593 48.1643C102.541 48.1677 102.487 48.1593 102.436 48.1391C102.253 48.0652 102.164 47.8569 102.238 47.6738C102.68 46.5769 103.155 45.4748 103.651 44.398C103.733 44.2183 103.945 44.1393 104.125 44.2233C104.304 44.3057 104.383 44.5173 104.299 44.6971C103.809 45.7621 103.338 46.854 102.9 47.9409C102.85 48.0736 102.727 48.1559 102.593 48.1643ZM235.592 37.5391C235.463 37.5475 235.333 37.4853 235.263 37.3661C234.66 36.3649 234.025 35.3653 233.373 34.3927C233.264 34.228 233.307 34.0063 233.47 33.8971C233.635 33.7879 233.857 33.8316 233.966 33.9945C234.623 34.9756 235.265 35.9852 235.873 36.9965C235.975 37.1662 235.92 37.3845 235.752 37.487C235.703 37.5189 235.648 37.5357 235.592 37.5391ZM106.221 40.4638C106.156 40.4688 106.088 40.4537 106.028 40.4218C105.855 40.3277 105.789 40.111 105.885 39.9363C106.45 38.8964 107.046 37.8566 107.661 36.8453C107.763 36.6773 107.983 36.6219 108.151 36.7243C108.321 36.8268 108.375 37.0469 108.272 37.2149C107.664 38.2178 107.073 39.2475 106.515 40.2773C106.453 40.3898 106.34 40.457 106.221 40.4638ZM230.799 30.5256C230.685 30.5323 230.568 30.4853 230.494 30.3878C229.78 29.4605 229.032 28.54 228.276 27.648C228.149 27.4968 228.167 27.2717 228.317 27.144C228.468 27.0163 228.693 27.0348 228.821 27.1843C229.585 28.0847 230.337 29.0154 231.06 29.9511C231.181 30.1073 231.152 30.3324 230.994 30.4517C230.936 30.497 230.867 30.5205 230.799 30.5256ZM110.701 33.2285C110.622 33.2336 110.542 33.2134 110.473 33.1647C110.312 33.0521 110.271 32.8287 110.386 32.6674C111.064 31.6998 111.775 30.7339 112.499 29.7982C112.62 29.642 112.845 29.6134 113.001 29.7344C113.157 29.8553 113.186 30.0804 113.065 30.2366C112.348 31.1623 111.644 32.1198 110.972 33.079C110.906 33.1697 110.806 33.2218 110.701 33.2285ZM225.234 24.1C225.133 24.1068 225.031 24.0698 224.953 23.9925C224.139 23.1526 223.292 22.3211 222.437 21.5214C222.293 21.387 222.286 21.1603 222.42 21.0158C222.555 20.8713 222.781 20.8646 222.926 20.999C223.788 21.807 224.643 22.6469 225.466 23.4936C225.604 23.6347 225.6 23.8615 225.459 23.9993C225.395 24.0614 225.315 24.095 225.234 24.1ZM115.97 26.5493C115.877 26.556 115.783 26.5258 115.709 26.4603C115.561 26.3292 115.548 26.1041 115.679 25.9563C116.462 25.071 117.278 24.1924 118.103 23.3458C118.241 23.2047 118.467 23.2013 118.609 23.3391C118.75 23.4768 118.753 23.7036 118.615 23.8447C117.799 24.683 116.991 25.5531 116.215 26.43C116.149 26.504 116.06 26.5443 115.97 26.5493ZM218.973 18.3448C218.886 18.3498 218.797 18.3246 218.723 18.2641C217.817 17.5216 216.882 16.7909 215.941 16.0921C215.783 15.9745 215.749 15.751 215.867 15.5915C215.985 15.4335 216.208 15.3999 216.368 15.5175C217.317 16.2231 218.261 16.9606 219.176 17.7098C219.329 17.8341 219.351 18.0609 219.227 18.2121C219.16 18.2944 219.067 18.3381 218.973 18.3448ZM121.958 20.5135C121.852 20.5202 121.745 20.4799 121.669 20.3959C121.537 20.2498 121.55 20.023 121.696 19.8903C122.575 19.1007 123.484 18.3213 124.399 17.5737C124.552 17.4494 124.777 17.4712 124.901 17.6241C125.026 17.777 125.004 18.0021 124.851 18.1264C123.946 18.8655 123.045 19.6383 122.175 20.4211C122.113 20.4782 122.036 20.5085 121.958 20.5135ZM212.097 13.3354C212.023 13.3404 211.948 13.3219 211.881 13.2783C210.896 12.6433 209.883 12.0234 208.87 11.4354C208.699 11.3363 208.642 11.1179 208.741 10.9466C208.84 10.7752 209.058 10.7181 209.23 10.8172C210.253 11.4102 211.276 12.0368 212.27 12.6785C212.437 12.7861 212.484 13.0061 212.376 13.1724C212.311 13.2715 212.207 13.3287 212.097 13.3354ZM128.592 15.2C128.473 15.2084 128.352 15.1547 128.278 15.0505C128.164 14.8893 128.201 14.6658 128.362 14.5516C129.325 13.8679 130.316 13.1976 131.308 12.5593C131.475 12.4518 131.697 12.5005 131.802 12.6668C131.908 12.8331 131.861 13.0548 131.695 13.1607C130.71 13.7923 129.729 14.4559 128.777 15.1328C128.72 15.1748 128.656 15.1967 128.592 15.2ZM204.696 9.13567C204.635 9.13903 204.573 9.12895 204.514 9.09871C203.464 8.57963 202.386 8.07735 201.311 7.60866C201.129 7.52971 201.047 7.31972 201.126 7.13829C201.205 6.95687 201.415 6.87455 201.596 6.95351C202.682 7.42723 203.768 7.93288 204.83 8.457C205.007 8.54435 205.08 8.75938 204.991 8.93577C204.934 9.05672 204.818 9.12727 204.696 9.13567ZM135.785 10.6812C135.651 10.6896 135.518 10.6224 135.449 10.4964C135.354 10.3233 135.417 10.1066 135.591 10.0109C136.627 9.43973 137.69 8.88705 138.752 8.36629C138.93 8.27893 139.143 8.35285 139.231 8.52924C139.318 8.7073 139.244 8.92065 139.068 9.008C138.016 9.52372 136.963 10.0714 135.937 10.6358C135.886 10.6644 135.836 10.6778 135.785 10.6812ZM196.861 5.80447C196.814 5.80783 196.765 5.80111 196.716 5.78431C195.613 5.38786 194.484 5.01325 193.363 4.67055C193.175 4.61343 193.068 4.41353 193.126 4.2237C193.184 4.03556 193.383 3.92804 193.573 3.98684C194.706 4.33289 195.844 4.71087 196.96 5.11236C197.146 5.17955 197.242 5.3845 197.175 5.56929C197.125 5.70704 196.999 5.79607 196.861 5.80447ZM143.457 7.0123C143.308 7.02238 143.163 6.93671 143.103 6.79056C143.027 6.60745 143.116 6.39915 143.298 6.32355C144.391 5.8767 145.512 5.44833 146.626 5.05356C146.812 4.98805 147.015 5.08548 147.083 5.27027C147.148 5.45673 147.051 5.66 146.866 5.72719C145.762 6.11861 144.652 6.54194 143.57 6.98542C143.533 7.00054 143.496 7.00894 143.457 7.0123ZM188.693 3.39216C188.66 3.39384 188.624 3.39216 188.589 3.38376C187.445 3.11666 186.281 2.87308 185.127 2.66141C184.932 2.62614 184.804 2.43967 184.84 2.2448C184.875 2.04994 185.061 1.92227 185.256 1.95754C186.422 2.17089 187.598 2.41615 188.752 2.68661C188.944 2.73197 189.064 2.92347 189.019 3.11666C188.98 3.27457 188.846 3.38208 188.693 3.39216ZM151.501 4.24722C151.336 4.2573 151.18 4.15315 151.134 3.98684C151.081 3.79701 151.192 3.59879 151.381 3.54671C152.519 3.22753 153.679 2.93019 154.834 2.66477C155.027 2.6211 155.218 2.74037 155.262 2.93355C155.306 3.12674 155.186 3.31825 154.993 3.36192C153.851 3.62398 152.7 3.91796 151.575 4.23546C151.551 4.24218 151.526 4.24554 151.501 4.24722ZM180.306 1.93402C180.284 1.9357 180.264 1.9357 180.242 1.93234C179.079 1.79795 177.897 1.69212 176.727 1.61317C176.531 1.59973 176.381 1.43006 176.395 1.23183C176.408 1.03529 176.578 0.885779 176.776 0.899218C177.957 0.978173 179.15 1.08569 180.324 1.22176C180.521 1.24359 180.662 1.42166 180.638 1.61821C180.616 1.79291 180.475 1.92395 180.306 1.93402ZM159.806 2.41783C159.625 2.42959 159.46 2.30192 159.43 2.11881C159.398 1.92395 159.53 1.74084 159.725 1.70892C160.453 1.59133 161.194 1.48214 161.926 1.38638C162.368 1.32759 162.815 1.27383 163.255 1.22344C163.45 1.2016 163.628 1.34271 163.651 1.53757C163.673 1.73412 163.532 1.91051 163.337 1.93402C162.9 1.98442 162.459 2.03818 162.022 2.09529C161.296 2.19105 160.562 2.29856 159.841 2.41447C159.83 2.41615 159.818 2.41615 159.806 2.41783ZM171.814 1.44854C171.805 1.44854 171.799 1.44854 171.79 1.44854C170.621 1.44854 169.433 1.4771 168.263 1.53253C168.066 1.54261 167.898 1.38974 167.888 1.1932C167.878 0.998331 168.027 0.832023 168.222 0.818584C168.224 0.818584 168.226 0.818584 168.229 0.818584C169.412 0.761468 170.609 0.73291 171.79 0.73291C171.988 0.73291 172.148 0.892499 172.148 1.09072C172.148 1.28223 172 1.43678 171.814 1.44854Z" fill="#F15A29"/>
<path d="M183.554 45.1861V168.177H183.231L173.919 159.116L164.608 168.177H163.637L154.325 159.116L145.012 168.177H144.056L134.76 159.132L125.465 168.177H124.513L115.208 159.122L105.901 168.177H104.92L95.6135 159.122L86.307 168.177H85.3377L76.0496 159.139L66.7616 168.177H66.1484V11.0039H149.371L183.554 45.1861Z" fill="#D4D4D4"/>
<path d="M183.553 45.1861H149.371V11.0039L183.553 45.1861Z" fill="#A9A9A9"/>
<path d="M97.7419 109.169V104.57H85.3275C83.7619 104.57 82.586 104.215 81.8031 103.507C81.0203 102.798 80.6289 101.833 80.6289 100.614C80.6289 100.301 80.686 99.9838 80.8019 99.6613C80.9178 99.3404 81.0909 99.0028 81.321 98.6466C81.5512 98.2922 81.7914 97.9512 82.0383 97.6202C82.2853 97.291 82.591 96.8861 82.9539 96.409L96.0603 78.8761C96.917 77.722 97.6226 76.8855 98.1753 76.3664C98.7279 75.8473 99.3915 75.5869 100.166 75.5869C102.672 75.5869 103.925 77.0215 103.925 79.8891V99.0296H104.989C106.259 99.0296 107.277 99.2027 108.043 99.5487C108.809 99.8948 109.194 100.654 109.194 101.823C109.194 102.779 108.879 103.476 108.255 103.913C107.628 104.35 106.689 104.568 105.436 104.568H103.927V109.168C103.927 110.438 103.647 111.38 103.087 111.998C102.526 112.617 101.777 112.926 100.836 112.926C99.9123 112.926 99.1664 112.608 98.5986 111.973C98.0274 111.341 97.7419 110.406 97.7419 109.169ZM87.1099 99.0296H97.7435V84.6616L87.1099 99.0296Z" fill="black"/>
<path d="M137.803 94.5293C137.803 97.2339 137.639 99.5571 137.309 101.502C136.98 103.448 136.37 105.212 135.48 106.794C134.36 108.739 132.908 110.24 131.127 111.294C129.347 112.349 127.368 112.877 125.192 112.877C122.686 112.877 120.44 112.168 118.454 110.75C116.467 109.332 114.972 107.37 113.966 104.866C113.455 103.498 113.079 101.985 112.84 100.328C112.602 98.6718 112.482 96.8794 112.482 94.9492C112.482 92.4597 112.613 90.2187 112.879 88.223C113.143 86.229 113.554 84.5138 114.115 83.0792C115.088 80.7055 116.502 78.8963 118.357 77.6515C120.212 76.4067 122.426 75.7852 124.996 75.7852C126.694 75.7852 128.235 76.0607 129.621 76.6133C131.005 77.166 132.221 77.974 133.268 79.0374C134.314 80.1008 135.201 81.4161 135.925 82.9818C137.177 85.7015 137.803 89.5518 137.803 94.5293ZM131.027 94.0354C131.027 91.0183 130.845 88.5506 130.482 86.6288C130.119 84.7087 129.51 83.2573 128.653 82.2762C127.796 81.2952 126.609 80.8046 125.092 80.8046C122.916 80.8046 121.403 81.9016 120.554 84.0938C119.704 86.2861 119.281 89.666 119.281 94.2319C119.281 97.3313 119.462 99.8696 119.825 101.848C120.188 103.827 120.798 105.322 121.655 106.337C122.511 107.352 123.674 107.857 125.142 107.857C126.659 107.857 127.845 107.33 128.703 106.275C129.56 105.22 130.163 103.711 130.509 101.749C130.854 99.789 131.027 97.2171 131.027 94.0354Z" fill="black"/>
<path d="M157.931 109.169V104.57H145.517C143.951 104.57 142.775 104.215 141.993 103.507C141.21 102.798 140.818 101.833 140.818 100.614C140.818 100.301 140.875 99.9838 140.991 99.6613C141.107 99.3404 141.28 99.0028 141.51 98.6466C141.741 98.2922 141.981 97.9512 142.228 97.6202C142.475 97.291 142.78 96.8861 143.143 96.409L156.25 78.8761C157.106 77.722 157.812 76.8855 158.365 76.3664C158.917 75.8473 159.581 75.5869 160.355 75.5869C162.862 75.5869 164.115 77.0215 164.115 79.8891V99.0296H165.178C166.448 99.0296 167.466 99.2027 168.232 99.5487C168.998 99.8948 169.383 100.654 169.383 101.823C169.383 102.779 169.069 103.476 168.444 103.913C167.817 104.35 166.878 104.568 165.625 104.568H164.117V109.168C164.117 110.438 163.836 111.38 163.275 111.998C162.714 112.617 161.965 112.926 161.024 112.926C160.1 112.926 159.354 112.608 158.786 111.973C158.215 111.341 157.931 110.406 157.931 109.169ZM147.298 99.0296H157.931V84.6616L147.298 99.0296Z" fill="black"/>
<path d="M123.942 204.279C122.324 205.897 119.702 205.897 118.086 204.279L92.9432 179.136L89.748 175.941C92.0747 174.406 94.0687 172.41 95.6041 170.085L123.942 198.423C125.56 200.039 125.56 202.661 123.942 204.279Z" fill="#B2B7BB"/>
<path d="M96.8776 171.357L103.429 177.91C101.894 180.237 99.8997 182.231 97.573 183.766L94.2166 180.408L91.0215 177.213C93.3481 175.679 95.3438 173.683 96.8776 171.357Z" fill="#73778C"/>
<path d="M103.41 157.713C103.366 156.653 103.253 155.61 103.08 154.587C102.096 148.774 99.1041 143.644 94.8405 139.938C90.4544 136.121 84.7243 133.812 78.455 133.812C64.6615 133.812 53.4785 144.994 53.4785 158.788C53.4785 159.742 53.5323 160.685 53.6364 161.612C53.964 164.518 54.7888 167.273 56.0269 169.79C57.8042 173.406 60.4299 176.529 63.6452 178.901C64.1676 179.288 64.7068 179.652 65.2595 179.998C69.0896 182.385 73.6119 183.764 78.455 183.764C83.8575 183.764 88.8585 182.049 92.9439 179.135C95.2051 177.522 97.1856 175.541 98.8 173.28C100.421 171.007 101.671 168.452 102.46 165.702C103.09 163.507 103.43 161.189 103.43 158.791C103.431 158.428 103.425 158.069 103.41 157.713ZM78.455 179.323C73.9613 179.323 69.8069 177.88 66.4254 175.432C63.1445 173.057 60.5928 169.734 59.1716 165.864C58.3619 163.658 57.9218 161.276 57.9218 158.79C57.9218 157.854 57.984 156.933 58.1066 156.031C59.128 148.416 64.3238 142.125 71.3155 139.532C73.5396 138.707 75.9452 138.256 78.4567 138.256C79.3655 138.256 80.2592 138.315 81.1361 138.43C85.2988 138.97 89.0701 140.76 92.0637 143.41C96.3138 147.172 98.9915 152.668 98.9915 158.79C98.9915 159.102 98.9848 159.413 98.9697 159.722C98.9025 161.229 98.6723 162.694 98.2977 164.1C97.7232 166.255 96.806 168.269 95.6099 170.083C94.0745 172.41 92.0805 174.406 89.7538 175.94C89.1827 176.316 88.5931 176.664 87.9833 176.983C86.683 177.665 85.3005 178.211 83.8541 178.604C82.1322 179.073 80.323 179.323 78.455 179.323Z" fill="#B3B3B3"/>
<path d="M62.907 161.047C61.8487 161.047 60.9902 160.189 60.9902 159.131C60.9902 154.375 62.8431 149.903 66.2063 146.54C69.5694 143.177 74.0412 141.324 78.797 141.324C79.8553 141.324 80.7137 142.182 80.7137 143.241C80.7137 144.299 79.8553 145.157 78.797 145.157C75.0643 145.157 71.5567 146.611 68.9176 149.25C66.2785 151.889 64.8254 155.396 64.8254 159.129C64.8254 160.189 63.967 161.047 62.907 161.047Z" fill="white"/>
</svg>
