<svg width="22" height="22" viewBox="0 0 22 22" fill="none" xmlns="http://www.w3.org/2000/svg">
<mask id="mask0_525_196" style="mask-type:alpha" maskUnits="userSpaceOnUse" x="0" y="0" width="22" height="22">
<rect width="22" height="22" fill="#D9D9D9"/>
</mask>
<g mask="url(#mask0_525_196)">
<path d="M20.0577 2.27801L21.1572 2.30818L21.1874 1.2086L20.0878 1.17843L20.0577 2.27801ZM0.468506 19.3062C0.0273086 19.7238 0.00820524 20.4201 0.425838 20.8613C0.84347 21.3025 1.53969 21.3216 1.98089 20.9039L0.468506 19.3062ZM20.8219 14.5282L21.1572 2.30818L18.9581 2.24784L18.6228 14.4678L20.8219 14.5282ZM20.0878 1.17843L7.86782 0.843126L7.80748 3.0423L20.0275 3.3776L20.0878 1.17843ZM19.3015 1.47915L0.468506 19.3062L1.98089 20.9039L20.8138 3.07687L19.3015 1.47915Z" fill="black"/>
</g>
</svg>
