<svg width="12" height="11" viewBox="0 0 12 11" fill="none" xmlns="http://www.w3.org/2000/svg">
<path d="M11.4345 1.72449L4.60953 9.84949C4.53466 9.93866 4.44151 10.0107 4.33637 10.0607C4.23123 10.1108 4.11657 10.1376 4.00015 10.1395H3.98644C3.87256 10.1394 3.75996 10.1154 3.65594 10.0691C3.55192 10.0227 3.45881 9.95498 3.38265 9.87031L0.457653 6.62031C0.383368 6.54153 0.325583 6.44868 0.287692 6.34724C0.249801 6.2458 0.232571 6.13781 0.237012 6.02961C0.241453 5.92142 0.267476 5.8152 0.313553 5.71721C0.35963 5.61922 0.424831 5.53142 0.505322 5.45898C0.585814 5.38655 0.679973 5.33093 0.782266 5.29541C0.884559 5.25988 0.99292 5.24516 1.10098 5.25211C1.20905 5.25906 1.31463 5.28755 1.41153 5.33588C1.50843 5.38422 1.59468 5.45144 1.66523 5.53359L3.96511 8.08891L10.1904 0.679416C10.33 0.517971 10.5276 0.417962 10.7404 0.401007C10.9532 0.384051 11.1641 0.451511 11.3275 0.588804C11.4909 0.726097 11.5938 0.922196 11.6138 1.13471C11.6339 1.34722 11.5694 1.55908 11.4345 1.72449Z" fill="white"/>
</svg>
