<svg width="25" height="24" viewBox="0 0 25 24" fill="none" xmlns="http://www.w3.org/2000/svg">
<g clip-path="url(#clip0_36_7)">
<path d="M21.6738 9.99976C21.6738 16.9998 12.6738 22.9998 12.6738 22.9998C12.6738 22.9998 3.67383 16.9998 3.67383 9.99976C3.67383 7.61281 4.62204 5.32362 6.30987 3.63579C7.99769 1.94797 10.2869 0.999756 12.6738 0.999756C15.0608 0.999756 17.35 1.94797 19.0378 3.63579C20.7256 5.32362 21.6738 7.61281 21.6738 9.99976Z" stroke="#262626" stroke-width="1.5" stroke-linecap="round" stroke-linejoin="round"/>
<path d="M12.6738 12.9998C14.3307 12.9998 15.6738 11.6566 15.6738 9.99976C15.6738 8.3429 14.3307 6.99976 12.6738 6.99976C11.017 6.99976 9.67383 8.3429 9.67383 9.99976C9.67383 11.6566 11.017 12.9998 12.6738 12.9998Z" stroke="#262626" stroke-width="1.5" stroke-linecap="round" stroke-linejoin="round"/>
</g>
<defs>
<clipPath id="clip0_36_7">
<rect width="24" height="24" fill="white" transform="translate(0.673828 -0.000244141)"/>
</clipPath>
</defs>
</svg>
