<svg width="25" height="24" viewBox="0 0 25 24" fill="none" xmlns="http://www.w3.org/2000/svg">
<path d="M14.6738 1.99976H6.67383C6.1434 1.99976 5.63469 2.21047 5.25961 2.58554C4.88454 2.96061 4.67383 3.46932 4.67383 3.99976V19.9998C4.67383 20.5302 4.88454 21.0389 5.25961 21.414C5.63469 21.789 6.1434 21.9998 6.67383 21.9998H18.6738C19.2043 21.9998 19.713 21.789 20.088 21.414C20.4631 21.0389 20.6738 20.5302 20.6738 19.9998V7.99976L14.6738 1.99976Z" stroke="#262626" stroke-width="1.5" stroke-linecap="round" stroke-linejoin="round"/>
<path d="M14.6738 1.99976V7.99976H20.6738" stroke="#262626" stroke-width="1.5" stroke-linecap="round" stroke-linejoin="round"/>
<path d="M16.6738 12.9998H8.67383" stroke="#262626" stroke-width="1.5" stroke-linecap="round" stroke-linejoin="round"/>
<path d="M16.6738 16.9998H8.67383" stroke="#262626" stroke-width="1.5" stroke-linecap="round" stroke-linejoin="round"/>
<path d="M10.6738 8.99976H9.67383H8.67383" stroke="#262626" stroke-width="1.5" stroke-linecap="round" stroke-linejoin="round"/>
</svg>
