<svg width="169" height="190" viewBox="0 0 169 190" fill="none" xmlns="http://www.w3.org/2000/svg">
<path d="M2 67.8198C2 65.9342 2 64.9914 2.58579 64.4056C3.17157 63.8198 4.11438 63.8198 6 63.8198H162.853C164.738 63.8198 165.681 63.8198 166.267 64.4056C166.853 64.9914 166.853 65.9342 166.853 67.8198V181.459C166.853 184.288 166.853 185.702 165.974 186.581C165.095 187.459 163.681 187.459 160.853 187.459H8C5.17157 187.459 3.75736 187.459 2.87868 186.581C2 185.702 2 184.288 2 181.459V67.8198Z" stroke="#F15A29" stroke-width="4"/>
<path d="M125.639 53.5165V12C125.639 7.28595 125.639 4.92893 124.175 3.46447C122.71 2 120.353 2 115.639 2H53.2129C48.4988 2 46.1418 2 44.6774 3.46447C43.2129 4.92893 43.2129 7.28595 43.2129 12V53.5165" stroke="#F15A29" stroke-width="4" stroke-linecap="round"/>
</svg>
