<svg width="242" height="88" viewBox="0 0 242 88" fill="none" xmlns="http://www.w3.org/2000/svg">
<path fill-rule="evenodd" clip-rule="evenodd" d="M188.961 0.84821C158.161 0.674492 137.599 4.12753 96.2497 16.4174C92.6132 17.4979 86.9279 19.1808 83.6158 20.1573C56.3313 28.1976 17.8334 49.3647 6.9418 62.3141C4.68302 64.9995 0.542803 72.5462 0.477684 74.0971C0.466918 74.3535 0.662053 73.9586 1.44035 72.1493C5.02851 63.8074 14.0189 56.5901 35.9199 44.4699C48.8568 37.3101 62.9323 30.9472 74.47 27.0432C83.2771 24.0629 124.948 12.7763 126.325 12.9988C126.607 13.0443 125.011 13.6472 122.778 14.3384C98.7838 21.766 90.591 24.8416 76.0117 31.8969C64.7153 37.3632 58.0519 41.4398 40.9619 53.3419C34.5323 57.8194 34.7196 57.651 34.5592 59.1108C34.1531 62.8088 34.9477 62.9247 40.1996 59.9339C75.8167 39.6533 96.86 32.6181 129.486 30.0837C138.265 29.4018 168.562 29.7122 167.999 30.4781C167.678 30.9157 158.462 33.293 143.034 36.9175C108.516 45.0277 86.2101 55.445 61.3093 75.0851C54.4049 80.5305 53.1335 82.2821 53.5707 85.7442C54.0325 89.4 57.8744 88.5269 76.8171 80.4592C105.187 68.3764 115.664 65.261 138.092 62.2388C143.305 61.5364 152.234 60.97 151.963 61.3592C151.887 61.4677 146.179 63.6994 139.278 66.3181C122.011 72.8699 110.902 77.7388 110.471 78.9443C109.806 80.803 109.861 83.526 110.581 84.3683C111.458 85.3955 114.08 84.9638 120.162 82.7899C133.352 78.0751 146.435 75.7365 165.679 74.6524C168.559 74.49 171.918 74.1854 173.142 73.9754C175.991 73.4872 180.466 73.6766 182.512 74.3724C183.388 74.67 184.478 75.0377 184.934 75.1895C186.663 75.7643 180.73 72.2808 178.183 71.2251C171.799 68.5798 163.368 67.6936 153.289 68.6082C150.976 68.818 149.068 68.9116 149.047 68.8166C149.004 68.6165 151.373 67.7912 162.842 64.0125C171.634 61.1147 171.858 60.9799 172.301 58.3003C172.582 56.6003 172.458 54.5588 172.01 53.5101C171.671 52.7168 159.019 52.4314 152.117 53.0614C135.572 54.5722 126.774 56.0833 115.652 59.3239C104.399 62.603 96.8874 65.6406 78.0458 74.5322C66.5748 79.9456 60.5461 82.5283 58.5495 82.8856L57.3119 83.107L58.8586 81.6814C63.6298 77.2849 79.3618 66.7313 88.2607 61.9574C106.746 52.0405 119.279 47.6606 147.244 41.3426C170.742 36.0342 175.579 34.3507 176.066 31.3135C176.592 28.0411 175.983 26.0584 174.114 24.9515C171.565 23.4421 139.361 22.4479 127.887 23.5242C116.636 24.5799 103.226 26.9753 96.1007 29.2026C95.3441 29.4392 94.523 29.5954 94.276 29.55C92.4603 29.2164 117.99 20.8251 132.558 16.9676C148.517 12.7421 161.098 10.4445 178.486 8.58055C189.729 7.37582 218.218 9.27348 229.673 11.991C240.284 14.5083 240.666 14.5524 241.043 13.3106C241.436 12.0153 241.487 11.0446 241.224 9.81637C240.889 8.25322 238.673 7.33958 233.581 6.66514C231.707 6.41672 227.583 5.55712 224.417 4.75426C221.251 3.9519 217.334 3.01288 215.713 2.66744C212.654 2.0158 196.072 0.888449 188.961 0.84821ZM131.509 11.9799C131.416 12.1132 131.242 12.1143 131.121 11.9821C131.001 11.8499 131.077 11.7409 131.291 11.7399C131.504 11.7388 131.603 11.8466 131.509 11.9799ZM129.809 12.4332C129.645 12.545 129.355 12.5358 129.163 12.4131C128.972 12.2899 129.106 12.1984 129.461 12.2093C129.816 12.2207 129.973 12.3214 129.809 12.4332ZM128.043 12.8657C127.843 12.972 127.524 12.9586 127.334 12.8359C127.143 12.7133 127.307 12.6265 127.697 12.6429C128.088 12.6593 128.244 12.7595 128.043 12.8657ZM93.5164 29.9362C93.3517 30.0485 93.0902 30.0375 92.9356 29.9118C92.7809 29.7857 92.9156 29.6937 93.2351 29.7071C93.5545 29.7205 93.681 29.8235 93.5164 29.9362ZM92.0766 30.3544C91.9821 30.4896 91.8369 30.4835 91.7539 30.3409C91.6711 30.1987 91.7483 30.0883 91.9258 30.0957C92.1033 30.1032 92.1712 30.2197 92.0766 30.3544ZM186.037 75.8562C186.12 75.9989 186.266 76.005 186.36 75.8697C186.455 75.735 186.387 75.6185 186.209 75.6111C186.032 75.6036 185.955 75.714 186.037 75.8562Z" fill="#FADCD3"/>
</svg>
